<svg width="161" height="19" viewBox="0 0 161 19" fill="none" xmlns="http://www.w3.org/2000/svg">
<mask id="mask0_215_57" style="mask-type:luminance" maskUnits="userSpaceOnUse" x="0" y="1" width="16" height="16">
<path fill-rule="evenodd" clip-rule="evenodd" d="M15.814 7.54545H8.18605V10.6364H12.5767C12.1674 12.6 10.4558 13.7273 8.18605 13.7273C5.50698 13.7273 3.34884 11.6182 3.34884 9C3.34884 6.38182 5.50698 4.27273 8.18605 4.27273C9.33953 4.27273 10.3814 4.67273 11.2 5.32727L13.5814 3C12.1302 1.76364 10.2698 1 8.18605 1C3.64651 1 0 4.56364 0 9C0 13.4364 3.64651 17 8.18605 17C12.2791 17 16 14.0909 16 9C16 8.52727 15.9256 8.01818 15.814 7.54545Z" fill="white"/>
</mask>
<g mask="url(#mask0_215_57)">
<path d="M-0.744141 13.7273V4.27271L5.58144 8.99998L-0.744141 13.7273Z" fill="#FBBC05"/>
</g>
<mask id="mask1_215_57" style="mask-type:luminance" maskUnits="userSpaceOnUse" x="0" y="1" width="16" height="16">
<path fill-rule="evenodd" clip-rule="evenodd" d="M15.814 7.54545H8.18605V10.6364H12.5767C12.1674 12.6 10.4558 13.7273 8.18605 13.7273C5.50698 13.7273 3.34884 11.6182 3.34884 9C3.34884 6.38182 5.50698 4.27273 8.18605 4.27273C9.33953 4.27273 10.3814 4.67273 11.2 5.32727L13.5814 3C12.1302 1.76364 10.2698 1 8.18605 1C3.64651 1 0 4.56364 0 9C0 13.4364 3.64651 17 8.18605 17C12.2791 17 16 14.0909 16 9C16 8.52727 15.9256 8.01818 15.814 7.54545Z" fill="white"/>
</mask>
<g mask="url(#mask1_215_57)">
<path d="M-0.744141 4.27271L5.58144 8.99998L8.18609 6.7818L17.1163 5.36361V0.272705H-0.744141V4.27271Z" fill="#EA4335"/>
</g>
<mask id="mask2_215_57" style="mask-type:luminance" maskUnits="userSpaceOnUse" x="0" y="1" width="16" height="16">
<path fill-rule="evenodd" clip-rule="evenodd" d="M15.814 7.54545H8.18605V10.6364H12.5767C12.1674 12.6 10.4558 13.7273 8.18605 13.7273C5.50698 13.7273 3.34884 11.6182 3.34884 9C3.34884 6.38182 5.50698 4.27273 8.18605 4.27273C9.33953 4.27273 10.3814 4.67273 11.2 5.32727L13.5814 3C12.1302 1.76364 10.2698 1 8.18605 1C3.64651 1 0 4.56364 0 9C0 13.4364 3.64651 17 8.18605 17C12.2791 17 16 14.0909 16 9C16 8.52727 15.9256 8.01818 15.814 7.54545Z" fill="white"/>
</mask>
<g mask="url(#mask2_215_57)">
<path d="M-0.744141 13.7273L10.4186 5.36361L13.3582 5.72725L17.1163 0.272705V17.7273H-0.744141V13.7273Z" fill="#34A853"/>
</g>
<mask id="mask3_215_57" style="mask-type:luminance" maskUnits="userSpaceOnUse" x="0" y="1" width="16" height="16">
<path fill-rule="evenodd" clip-rule="evenodd" d="M15.814 7.54545H8.18605V10.6364H12.5767C12.1674 12.6 10.4558 13.7273 8.18605 13.7273C5.50698 13.7273 3.34884 11.6182 3.34884 9C3.34884 6.38182 5.50698 4.27273 8.18605 4.27273C9.33953 4.27273 10.3814 4.67273 11.2 5.32727L13.5814 3C12.1302 1.76364 10.2698 1 8.18605 1C3.64651 1 0 4.56364 0 9C0 13.4364 3.64651 17 8.18605 17C12.2791 17 16 14.0909 16 9C16 8.52727 15.9256 8.01818 15.814 7.54545Z" fill="white"/>
</mask>
<g mask="url(#mask3_215_57)">
<path d="M17.1165 17.7273L5.58163 8.99998L4.09326 7.90907L17.1165 4.27271V17.7273Z" fill="#4285F4"/>
</g>
<path d="M27.8067 8.8C27.8067 7.976 27.9907 7.24 28.3587 6.592C28.7347 5.936 29.2427 5.428 29.8827 5.068C30.5307 4.7 31.2547 4.516 32.0547 4.516C32.9907 4.516 33.8107 4.756 34.5147 5.236C35.2187 5.716 35.7107 6.38 35.9907 7.228H34.0587C33.8667 6.828 33.5947 6.528 33.2427 6.328C32.8987 6.128 32.4987 6.028 32.0427 6.028C31.5547 6.028 31.1187 6.144 30.7347 6.376C30.3587 6.6 30.0627 6.92 29.8467 7.336C29.6387 7.752 29.5347 8.24 29.5347 8.8C29.5347 9.352 29.6387 9.84 29.8467 10.264C30.0627 10.68 30.3587 11.004 30.7347 11.236C31.1187 11.46 31.5547 11.572 32.0427 11.572C32.4987 11.572 32.8987 11.472 33.2427 11.272C33.5947 11.064 33.8667 10.76 34.0587 10.36H35.9907C35.7107 11.216 35.2187 11.884 34.5147 12.364C33.8187 12.836 32.9987 13.072 32.0547 13.072C31.2547 13.072 30.5307 12.892 29.8827 12.532C29.2427 12.164 28.7347 11.656 28.3587 11.008C27.9907 10.36 27.8067 9.624 27.8067 8.8ZM40.3777 13.108C39.7377 13.108 39.1617 12.968 38.6497 12.688C38.1377 12.4 37.7337 11.996 37.4377 11.476C37.1497 10.956 37.0057 10.356 37.0057 9.676C37.0057 8.996 37.1537 8.396 37.4497 7.876C37.7537 7.356 38.1657 6.956 38.6857 6.676C39.2057 6.388 39.7857 6.244 40.4257 6.244C41.0657 6.244 41.6457 6.388 42.1657 6.676C42.6857 6.956 43.0937 7.356 43.3897 7.876C43.6937 8.396 43.8457 8.996 43.8457 9.676C43.8457 10.356 43.6897 10.956 43.3777 11.476C43.0737 11.996 42.6577 12.4 42.1297 12.688C41.6097 12.968 41.0257 13.108 40.3777 13.108ZM40.3777 11.644C40.6817 11.644 40.9657 11.572 41.2297 11.428C41.5017 11.276 41.7177 11.052 41.8777 10.756C42.0377 10.46 42.1177 10.1 42.1177 9.676C42.1177 9.044 41.9497 8.56 41.6137 8.224C41.2857 7.88 40.8817 7.708 40.4017 7.708C39.9217 7.708 39.5177 7.88 39.1897 8.224C38.8697 8.56 38.7097 9.044 38.7097 9.676C38.7097 10.308 38.8657 10.796 39.1777 11.14C39.4977 11.476 39.8977 11.644 40.3777 11.644ZM48.762 6.256C49.554 6.256 50.194 6.508 50.682 7.012C51.17 7.508 51.414 8.204 51.414 9.1V13H49.734V9.328C49.734 8.8 49.602 8.396 49.338 8.116C49.074 7.828 48.714 7.684 48.258 7.684C47.794 7.684 47.426 7.828 47.154 8.116C46.89 8.396 46.758 8.8 46.758 9.328V13H45.078V6.352H46.758V7.18C46.982 6.892 47.266 6.668 47.61 6.508C47.962 6.34 48.346 6.256 48.762 6.256ZM54.9676 7.732V10.948C54.9676 11.172 55.0196 11.336 55.1236 11.44C55.2356 11.536 55.4196 11.584 55.6756 11.584H56.4556V13H55.3996C53.9836 13 53.2756 12.312 53.2756 10.936V7.732H52.4836V6.352H53.2756V4.708H54.9676V6.352H56.4556V7.732H54.9676ZM58.5159 5.56C58.2199 5.56 57.9719 5.468 57.7719 5.284C57.5799 5.092 57.4839 4.856 57.4839 4.576C57.4839 4.296 57.5799 4.064 57.7719 3.88C57.9719 3.688 58.2199 3.592 58.5159 3.592C58.8119 3.592 59.0559 3.688 59.2479 3.88C59.4479 4.064 59.5479 4.296 59.5479 4.576C59.5479 4.856 59.4479 5.092 59.2479 5.284C59.0559 5.468 58.8119 5.56 58.5159 5.56ZM59.3439 6.352V13H57.6639V6.352H59.3439ZM64.6878 6.256C65.4798 6.256 66.1198 6.508 66.6078 7.012C67.0958 7.508 67.3398 8.204 67.3398 9.1V13H65.6598V9.328C65.6598 8.8 65.5278 8.396 65.2638 8.116C64.9998 7.828 64.6398 7.684 64.1838 7.684C63.7198 7.684 63.3518 7.828 63.0798 8.116C62.8158 8.396 62.6838 8.8 62.6838 9.328V13H61.0038V6.352H62.6838V7.18C62.9078 6.892 63.1918 6.668 63.5358 6.508C63.8878 6.34 64.2718 6.256 64.6878 6.256ZM75.2134 6.352V13H73.5214V12.16C73.3054 12.448 73.0214 12.676 72.6694 12.844C72.3254 13.004 71.9494 13.084 71.5414 13.084C71.0214 13.084 70.5614 12.976 70.1614 12.76C69.7614 12.536 69.4454 12.212 69.2134 11.788C68.9894 11.356 68.8774 10.844 68.8774 10.252V6.352H70.5574V10.012C70.5574 10.54 70.6894 10.948 70.9534 11.236C71.2174 11.516 71.5774 11.656 72.0334 11.656C72.4974 11.656 72.8614 11.516 73.1254 11.236C73.3894 10.948 73.5214 10.54 73.5214 10.012V6.352H75.2134ZM83.051 9.532C83.051 9.772 83.035 9.988 83.003 10.18H78.143C78.183 10.66 78.351 11.036 78.647 11.308C78.943 11.58 79.307 11.716 79.739 11.716C80.363 11.716 80.807 11.448 81.071 10.912H82.883C82.691 11.552 82.323 12.08 81.779 12.496C81.235 12.904 80.567 13.108 79.775 13.108C79.135 13.108 78.559 12.968 78.047 12.688C77.543 12.4 77.147 11.996 76.859 11.476C76.579 10.956 76.439 10.356 76.439 9.676C76.439 8.988 76.579 8.384 76.859 7.864C77.139 7.344 77.531 6.944 78.035 6.664C78.539 6.384 79.119 6.244 79.775 6.244C80.407 6.244 80.971 6.38 81.467 6.652C81.971 6.924 82.359 7.312 82.631 7.816C82.911 8.312 83.051 8.884 83.051 9.532ZM81.311 9.052C81.303 8.62 81.147 8.276 80.843 8.02C80.539 7.756 80.167 7.624 79.727 7.624C79.311 7.624 78.959 7.752 78.671 8.008C78.391 8.256 78.219 8.604 78.155 9.052H81.311ZM96.3526 6.352L94.4086 13H92.5966L91.3846 8.356L90.1726 13H88.3486L86.3926 6.352H88.0966L89.2726 11.416L90.5446 6.352H92.3206L93.5686 11.404L94.7446 6.352H96.3526ZM98.1136 5.56C97.8176 5.56 97.5696 5.468 97.3696 5.284C97.1776 5.092 97.0816 4.856 97.0816 4.576C97.0816 4.296 97.1776 4.064 97.3696 3.88C97.5696 3.688 97.8176 3.592 98.1136 3.592C98.4096 3.592 98.6536 3.688 98.8456 3.88C99.0456 4.064 99.1456 4.296 99.1456 4.576C99.1456 4.856 99.0456 5.092 98.8456 5.284C98.6536 5.468 98.4096 5.56 98.1136 5.56ZM98.9416 6.352V13H97.2616V6.352H98.9416ZM102.557 7.732V10.948C102.557 11.172 102.609 11.336 102.713 11.44C102.825 11.536 103.009 11.584 103.265 11.584H104.045V13H102.989C101.573 13 100.865 12.312 100.865 10.936V7.732H100.073V6.352H100.865V4.708H102.557V6.352H104.045V7.732H102.557ZM108.998 6.256C109.502 6.256 109.95 6.368 110.342 6.592C110.734 6.808 111.038 7.132 111.254 7.564C111.478 7.988 111.59 8.5 111.59 9.1V13H109.91V9.328C109.91 8.8 109.778 8.396 109.514 8.116C109.25 7.828 108.89 7.684 108.434 7.684C107.97 7.684 107.602 7.828 107.33 8.116C107.066 8.396 106.934 8.8 106.934 9.328V13H105.254V4.12H106.934V7.18C107.15 6.892 107.438 6.668 107.798 6.508C108.158 6.34 108.558 6.256 108.998 6.256ZM121.879 7.144C121.687 6.792 121.423 6.524 121.087 6.34C120.751 6.156 120.359 6.064 119.911 6.064C119.415 6.064 118.975 6.176 118.591 6.4C118.207 6.624 117.907 6.944 117.691 7.36C117.475 7.776 117.367 8.256 117.367 8.8C117.367 9.36 117.475 9.848 117.691 10.264C117.915 10.68 118.223 11 118.615 11.224C119.007 11.448 119.463 11.56 119.983 11.56C120.623 11.56 121.147 11.392 121.555 11.056C121.963 10.712 122.231 10.236 122.359 9.628H119.479V8.344H124.015V9.808C123.903 10.392 123.663 10.932 123.295 11.428C122.927 11.924 122.451 12.324 121.867 12.628C121.291 12.924 120.643 13.072 119.923 13.072C119.115 13.072 118.383 12.892 117.727 12.532C117.079 12.164 116.567 11.656 116.191 11.008C115.823 10.36 115.639 9.624 115.639 8.8C115.639 7.976 115.823 7.24 116.191 6.592C116.567 5.936 117.079 5.428 117.727 5.068C118.383 4.7 119.111 4.516 119.911 4.516C120.855 4.516 121.675 4.748 122.371 5.212C123.067 5.668 123.547 6.312 123.811 7.144H121.879ZM128.21 13.108C127.57 13.108 126.994 12.968 126.482 12.688C125.97 12.4 125.566 11.996 125.27 11.476C124.982 10.956 124.838 10.356 124.838 9.676C124.838 8.996 124.986 8.396 125.282 7.876C125.586 7.356 125.998 6.956 126.518 6.676C127.038 6.388 127.618 6.244 128.258 6.244C128.898 6.244 129.478 6.388 129.998 6.676C130.518 6.956 130.926 7.356 131.222 7.876C131.526 8.396 131.678 8.996 131.678 9.676C131.678 10.356 131.522 10.956 131.21 11.476C130.906 11.996 130.49 12.4 129.962 12.688C129.442 12.968 128.858 13.108 128.21 13.108ZM128.21 11.644C128.514 11.644 128.798 11.572 129.062 11.428C129.334 11.276 129.55 11.052 129.71 10.756C129.87 10.46 129.95 10.1 129.95 9.676C129.95 9.044 129.782 8.56 129.446 8.224C129.118 7.88 128.714 7.708 128.234 7.708C127.754 7.708 127.35 7.88 127.022 8.224C126.702 8.56 126.542 9.044 126.542 9.676C126.542 10.308 126.698 10.796 127.01 11.14C127.33 11.476 127.73 11.644 128.21 11.644ZM135.862 13.108C135.222 13.108 134.646 12.968 134.134 12.688C133.622 12.4 133.218 11.996 132.922 11.476C132.634 10.956 132.49 10.356 132.49 9.676C132.49 8.996 132.638 8.396 132.934 7.876C133.238 7.356 133.65 6.956 134.17 6.676C134.69 6.388 135.27 6.244 135.91 6.244C136.55 6.244 137.13 6.388 137.65 6.676C138.17 6.956 138.578 7.356 138.874 7.876C139.178 8.396 139.33 8.996 139.33 9.676C139.33 10.356 139.174 10.956 138.862 11.476C138.558 11.996 138.142 12.4 137.614 12.688C137.094 12.968 136.51 13.108 135.862 13.108ZM135.862 11.644C136.166 11.644 136.45 11.572 136.714 11.428C136.986 11.276 137.202 11.052 137.362 10.756C137.522 10.46 137.602 10.1 137.602 9.676C137.602 9.044 137.434 8.56 137.098 8.224C136.77 7.88 136.366 7.708 135.886 7.708C135.406 7.708 135.002 7.88 134.674 8.224C134.354 8.56 134.194 9.044 134.194 9.676C134.194 10.308 134.35 10.796 134.662 11.14C134.982 11.476 135.382 11.644 135.862 11.644ZM143.166 6.244C143.662 6.244 144.098 6.344 144.474 6.544C144.85 6.736 145.146 6.988 145.362 7.3V6.352H147.054V13.048C147.054 13.664 146.93 14.212 146.682 14.692C146.434 15.18 146.062 15.564 145.566 15.844C145.07 16.132 144.47 16.276 143.766 16.276C142.822 16.276 142.046 16.056 141.438 15.616C140.838 15.176 140.498 14.576 140.418 13.816H142.086C142.174 14.12 142.362 14.36 142.65 14.536C142.946 14.72 143.302 14.812 143.718 14.812C144.206 14.812 144.602 14.664 144.906 14.368C145.21 14.08 145.362 13.64 145.362 13.048V12.016C145.146 12.328 144.846 12.588 144.462 12.796C144.086 13.004 143.654 13.108 143.166 13.108C142.606 13.108 142.094 12.964 141.63 12.676C141.166 12.388 140.798 11.984 140.526 11.464C140.262 10.936 140.13 10.332 140.13 9.652C140.13 8.98 140.262 8.384 140.526 7.864C140.798 7.344 141.162 6.944 141.618 6.664C142.082 6.384 142.598 6.244 143.166 6.244ZM145.362 9.676C145.362 9.268 145.282 8.92 145.122 8.632C144.962 8.336 144.746 8.112 144.474 7.96C144.202 7.8 143.91 7.72 143.598 7.72C143.286 7.72 142.998 7.796 142.734 7.948C142.47 8.1 142.254 8.324 142.086 8.62C141.926 8.908 141.846 9.252 141.846 9.652C141.846 10.052 141.926 10.404 142.086 10.708C142.254 11.004 142.47 11.232 142.734 11.392C143.006 11.552 143.294 11.632 143.598 11.632C143.91 11.632 144.202 11.556 144.474 11.404C144.746 11.244 144.962 11.02 145.122 10.732C145.282 10.436 145.362 10.084 145.362 9.676ZM150.375 4.12V13H148.695V4.12H150.375ZM158.215 9.532C158.215 9.772 158.199 9.988 158.167 10.18H153.307C153.347 10.66 153.515 11.036 153.811 11.308C154.107 11.58 154.471 11.716 154.903 11.716C155.527 11.716 155.971 11.448 156.235 10.912H158.047C157.855 11.552 157.487 12.08 156.943 12.496C156.399 12.904 155.731 13.108 154.939 13.108C154.299 13.108 153.723 12.968 153.211 12.688C152.707 12.4 152.311 11.996 152.023 11.476C151.743 10.956 151.603 10.356 151.603 9.676C151.603 8.988 151.743 8.384 152.023 7.864C152.303 7.344 152.695 6.944 153.199 6.664C153.703 6.384 154.283 6.244 154.939 6.244C155.571 6.244 156.135 6.38 156.631 6.652C157.135 6.924 157.523 7.312 157.795 7.816C158.075 8.312 158.215 8.884 158.215 9.532ZM156.475 9.052C156.467 8.62 156.311 8.276 156.007 8.02C155.703 7.756 155.331 7.624 154.891 7.624C154.475 7.624 154.123 7.752 153.835 8.008C153.555 8.256 153.383 8.604 153.319 9.052H156.475Z" fill="#696974"/>
</svg>
