<svg width="24" height="25" viewBox="0 0 24 25" fill="none" xmlns="http://www.w3.org/2000/svg">
<g id="Component/icon/ic_Friends">
<path id="Shape" fill-rule="evenodd" clip-rule="evenodd" d="M12 7.55591C10.3431 7.55591 9 6.21276 9 4.55591C9 2.89905 10.3431 1.55591 12 1.55591C13.6569 1.55591 15 2.89905 15 4.55591C15 6.21276 13.6569 7.55591 12 7.55591ZM12 5.55591C12.5523 5.55591 13 5.10819 13 4.55591C13 4.00362 12.5523 3.55591 12 3.55591C11.4477 3.55591 11 4.00362 11 4.55591C11 5.10819 11.4477 5.55591 12 5.55591ZM11 7.55591H13C14.6569 7.55591 16 8.89905 16 10.5559V11.5559C16 13.2128 14.6569 14.5559 13 14.5559H11C9.34315 14.5559 8 13.2128 8 11.5559V10.5559C8 8.89905 9.34315 7.55591 11 7.55591ZM11 9.55591C10.4477 9.55591 10 10.0036 10 10.5559V11.5559C10 12.1082 10.4477 12.5559 11 12.5559H13C13.5523 12.5559 14 12.1082 14 11.5559V10.5559C14 10.0036 13.5523 9.55591 13 9.55591H11ZM19 16.5559C17.3431 16.5559 16 15.2128 16 13.5559C16 11.8991 17.3431 10.5559 19 10.5559C20.6569 10.5559 22 11.8991 22 13.5559C22 15.2128 20.6569 16.5559 19 16.5559ZM19 14.5559C19.5523 14.5559 20 14.1082 20 13.5559C20 13.0036 19.5523 12.5559 19 12.5559C18.4477 12.5559 18 13.0036 18 13.5559C18 14.1082 18.4477 14.5559 19 14.5559ZM18 16.5559H20C21.6569 16.5559 23 17.8991 23 19.5559V20.5559C23 22.2128 21.6569 23.5559 20 23.5559H18C16.3431 23.5559 15 22.2128 15 20.5559V19.5559C15 17.8991 16.3431 16.5559 18 16.5559ZM18 18.5559C17.4477 18.5559 17 19.0036 17 19.5559V20.5559C17 21.1082 17.4477 21.5559 18 21.5559H20C20.5523 21.5559 21 21.1082 21 20.5559V19.5559C21 19.0036 20.5523 18.5559 20 18.5559H18ZM5 16.5559C3.34315 16.5559 2 15.2128 2 13.5559C2 11.8991 3.34315 10.5559 5 10.5559C6.65685 10.5559 8 11.8991 8 13.5559C8 15.2128 6.65685 16.5559 5 16.5559ZM5 14.5559C5.55228 14.5559 6 14.1082 6 13.5559C6 13.0036 5.55228 12.5559 5 12.5559C4.44772 12.5559 4 13.0036 4 13.5559C4 14.1082 4.44772 14.5559 5 14.5559ZM4 16.5559H6C7.65685 16.5559 9 17.8991 9 19.5559V20.5559C9 22.2128 7.65685 23.5559 6 23.5559H4C2.34315 23.5559 1 22.2128 1 20.5559V19.5559C1 17.8991 2.34315 16.5559 4 16.5559ZM4 18.5559C3.44772 18.5559 3 19.0036 3 19.5559V20.5559C3 21.1082 3.44772 21.5559 4 21.5559H6C6.55228 21.5559 7 21.1082 7 20.5559V19.5559C7 19.0036 6.55228 18.5559 6 18.5559H4Z" fill="#92929D"/>
</g>
</svg>
