<svg width="35" height="34" viewBox="0 0 35 34" fill="none" xmlns="http://www.w3.org/2000/svg">
<g id="ic_likes yellow">
<path id="Shape" opacity="0.1" fill-rule="evenodd" clip-rule="evenodd" d="M17.9178 34C27.3161 34 34.935 26.3888 34.935 17C34.935 7.61116 27.3161 0 17.9178 0C8.5194 0 0.900513 7.61116 0.900513 17C0.900513 26.3888 8.5194 34 17.9178 34Z" fill="#FFC542"/>
<path id="Shape_2" fill-rule="evenodd" clip-rule="evenodd" d="M17.9829 10.1349C20.1052 7.95504 23.5579 7.95504 25.6802 10.1349C27.7874 12.2992 27.7874 15.797 25.6802 17.9613L19.2333 24.583C18.5267 25.3088 17.3648 25.325 16.6382 24.619C16.62 24.6012 16.62 24.6012 16.6022 24.583L10.1553 17.9613C8.04817 15.797 8.04817 12.2992 10.1553 10.1349C12.2776 7.95504 15.7303 7.95504 17.8526 10.1349L17.9178 10.2018L17.9829 10.1349ZM17.9178 23.0657L24.245 16.5668C25.5964 15.1789 25.5964 12.9173 24.245 11.5293C22.9089 10.1569 20.7543 10.1569 19.4181 11.5293L18.6353 12.3333C18.2423 12.737 17.5932 12.737 17.2002 12.3333L16.4174 11.5293C15.0812 10.1569 12.9267 10.1569 11.5905 11.5293C10.2392 12.9173 10.2392 15.1789 11.5905 16.5668L17.9178 23.0657Z" fill="#FFC542"/>
</g>
</svg>
