<svg width="24" height="25" viewBox="0 0 24 25" fill="none" xmlns="http://www.w3.org/2000/svg">
<g id="Component/icon/ic_Photos">
<path id="Shape" fill-rule="evenodd" clip-rule="evenodd" d="M23 15.1727V19.1118C23 21.321 21.2091 23.1118 19 23.1118H5C2.79086 23.1118 1 21.321 1 19.1118V5.11182C1 2.90268 2.79086 1.11182 5 1.11182H19C21.2091 1.11182 23 2.90268 23 5.11182V15.0509C23.0025 15.0915 23.0025 15.1322 23 15.1727ZM21 15.5243L17.0001 11.5259L13.2201 15.3059L18.4454 21.1118H19C20.1046 21.1118 21 20.2164 21 19.1118V15.5243ZM21 12.6964V5.11182C21 4.00725 20.1046 3.11182 19 3.11182H5C3.89543 3.11182 3 4.00725 3 5.11182V16.6976L8.29289 11.4047C8.69802 10.9996 9.36002 11.017 9.74329 11.4429L11.8803 13.8173L16.2929 9.40471C16.6834 9.01424 17.3164 9.01418 17.707 9.40458L21 12.6964ZM15.7546 21.1118L8.96181 13.5642L3.03576 19.4903C3.21265 20.4139 4.02482 21.1118 5 21.1118H15.7546ZM8.5 9.11182C7.11929 9.11182 6 7.99253 6 6.61182C6 5.2311 7.11929 4.11182 8.5 4.11182C9.88071 4.11182 11 5.2311 11 6.61182C11 7.99253 9.88071 9.11182 8.5 9.11182ZM8.5 7.11182C8.77614 7.11182 9 6.88796 9 6.61182C9 6.33567 8.77614 6.11182 8.5 6.11182C8.22386 6.11182 8 6.33567 8 6.61182C8 6.88796 8.22386 7.11182 8.5 7.11182Z" fill="#0062FF"/>
</g>
</svg>
